<svg width="24" height="25" viewBox="0 0 24 25" fill="none" xmlns="http://www.w3.org/2000/svg">
<path fill-rule="evenodd" clip-rule="evenodd" d="M3.75 12.9241C3.75 8.36729 7.44321 4.67407 12 4.67407C16.5568 4.67407 20.25 8.36729 20.25 12.9241C20.25 17.4809 16.5568 21.1741 12 21.1741C7.44321 21.1741 3.75 17.4809 3.75 12.9241ZM2.25 12.9241C2.25 18.3093 6.61479 22.6741 12 22.6741C17.3852 22.6741 21.75 18.3093 21.75 12.9241C21.75 7.53886 17.3852 3.17407 12 3.17407C6.61479 3.17407 2.25 7.53886 2.25 12.9241ZM11.7919 9.91759C11.499 9.62476 11.0241 9.62485 10.7313 9.91781C10.4384 10.2108 10.4385 10.6856 10.7315 10.9785L12.6779 12.9241L10.7315 14.8697C10.4385 15.1625 10.4384 15.6374 10.7313 15.9303C11.0241 16.2233 11.499 16.2234 11.7919 15.9305L14.269 13.4545C14.4097 13.3138 14.4888 13.123 14.4888 12.9241C14.4888 12.7251 14.4097 12.5343 14.269 12.3936L11.7919 9.91759Z" fill="#6C89A9"/>
</svg>
