<svg width="24" height="25" viewBox="0 0 24 25" fill="none" xmlns="http://www.w3.org/2000/svg">
<path fill-rule="evenodd" clip-rule="evenodd" d="M12.2441 7.20152C12.629 6.69985 13.3814 6.68674 13.7841 7.17574C13.9372 7.36126 14.022 7.59682 14.022 7.83999V11.111C14.022 11.5252 14.3578 11.861 14.772 11.861H17.868C18.2185 11.861 18.5461 12.0363 18.741 12.3275L19.07 12.8185C19.2422 13.0763 19.2916 13.3971 19.2063 13.6926L17.8473 18.4145C17.7177 18.8645 17.3064 19.174 16.839 19.174H10.55C10.258 19.174 9.97925 19.0524 9.78149 18.8395L8.75 17.7293V11.7508L12.2441 7.20152ZM7.25 11.4957C7.25 11.4955 7.25 11.4954 7.25 11.4952V11.48C7.25 11.3112 7.11279 11.174 6.944 11.174H5.056C4.88721 11.174 4.75 11.3112 4.75 11.48V18.868C4.75 19.0368 4.88721 19.174 5.056 19.174H6.944C7.11279 19.174 7.25 19.0368 7.25 18.868V11.4957ZM8.11957 10.1091L11.054 6.28845C12.027 5.02059 13.9263 4.98934 14.9416 6.22175C15.3183 6.67819 15.522 7.25125 15.522 7.83999V10.361H17.868C18.7194 10.361 19.514 10.7859 19.9871 11.4925L20.3161 11.9835C20.7335 12.6074 20.8561 13.3853 20.6478 14.1074L19.2888 18.8294C18.9744 19.9214 17.9756 20.674 16.839 20.674H10.55C9.84205 20.674 9.16482 20.3796 8.68259 19.8605L8.54229 19.7095C8.23965 20.283 7.63737 20.674 6.944 20.674H5.056C4.05879 20.674 3.25 19.8652 3.25 18.868V11.48C3.25 10.4828 4.05879 9.67398 5.056 9.67398H6.944C7.3929 9.67398 7.80362 9.83787 8.11957 10.1091Z" fill="#E129FF"/>
</svg>
