<svg width="24" height="25" viewBox="0 0 24 25" fill="none" xmlns="http://www.w3.org/2000/svg">
<g opacity="0.5">
<path fill-rule="evenodd" clip-rule="evenodd" d="M4.74658 11.9826C4.74658 8.49661 7.57253 5.67065 11.0585 5.67065C14.5445 5.67065 17.3705 8.49661 17.3705 11.9826C17.3705 13.7157 16.672 15.2857 15.5411 16.4264C15.5345 16.4325 15.5279 16.4389 15.5214 16.4453C15.515 16.4518 15.5086 16.4584 15.5024 16.465C14.3617 17.596 12.7917 18.2945 11.0585 18.2945C7.57253 18.2945 4.74658 15.4686 4.74658 11.9826ZM16.0268 18.0114C14.6766 19.1254 12.9457 19.7945 11.0585 19.7945C6.74411 19.7945 3.24658 16.297 3.24658 11.9826C3.24658 7.66818 6.74411 4.17065 11.0585 4.17065C15.3729 4.17065 18.8705 7.66818 18.8705 11.9826C18.8705 13.8697 18.2014 15.6005 17.0874 16.9507L20.5337 20.397C20.8266 20.6899 20.8266 21.1648 20.5337 21.4577C20.2408 21.7505 19.766 21.7505 19.4731 21.4577L16.0268 18.0114Z" fill="white"/>
</g>
</svg>
