<svg width="24" height="24" viewBox="0 0 24 24" fill="none" xmlns="http://www.w3.org/2000/svg">
<path d="M11.9984 5.44156C14.1354 5.44156 14.3862 5.45108 15.2308 5.48918C16.0119 5.52411 16.4342 5.6543 16.7168 5.76543C17.0915 5.91149 17.3582 6.08295 17.6377 6.36237C17.9171 6.64179 18.0917 6.90851 18.2346 7.28319C18.3426 7.56579 18.4759 7.98809 18.5108 8.7692C18.5489 9.61381 18.5585 9.86466 18.5585 12.0016C18.5585 14.1385 18.5489 14.3894 18.5108 15.234C18.4759 16.0151 18.3457 16.4374 18.2346 16.72C18.0885 17.0947 17.9171 17.3614 17.6377 17.6408C17.3582 17.9202 17.0915 18.0949 16.7168 18.2377C16.4342 18.3457 16.0119 18.4791 15.2308 18.514C14.3862 18.5521 14.1354 18.5616 11.9984 18.5616C9.86149 18.5616 9.61065 18.5521 8.76603 18.514C7.98493 18.4791 7.56262 18.3489 7.28002 18.2377C6.90534 18.0917 6.63862 17.9202 6.3592 17.6408C6.07978 17.3614 5.90514 17.0947 5.76226 16.72C5.6543 16.4374 5.52094 16.0151 5.48601 15.234C5.44791 14.3894 5.43838 14.1385 5.43838 12.0016C5.43838 9.86466 5.44791 9.61381 5.48601 8.7692C5.52094 7.98809 5.65112 7.56579 5.76226 7.28319C5.90832 6.90851 6.07978 6.64179 6.3592 6.36237C6.63862 6.08295 6.90534 5.90832 7.28002 5.76543C7.56262 5.65747 7.98493 5.52411 8.76603 5.48918C9.61065 5.44791 9.86467 5.44156 11.9984 5.44156ZM11.9984 4C9.82656 4 9.55349 4.00953 8.69935 4.04763C7.84839 4.08573 7.26732 4.22227 6.75928 4.41913C6.23219 4.62235 5.78766 4.89859 5.34313 5.34312C4.89859 5.78766 4.62552 6.23536 4.41913 6.75928C4.22227 7.26732 4.08573 7.84838 4.04763 8.70252C4.00953 9.55348 4 9.82655 4 11.9984C4 14.1703 4.00953 14.4433 4.04763 15.2975C4.08573 16.1484 4.22227 16.7295 4.41913 17.2407C4.62235 17.7678 4.89859 18.2123 5.34313 18.6569C5.78766 19.1014 6.23537 19.3745 6.75928 19.5809C7.26732 19.7777 7.84839 19.9143 8.70253 19.9524C9.55667 19.9905 9.82656 20 12.0016 20C14.1766 20 14.4465 19.9905 15.3007 19.9524C16.1516 19.9143 16.7327 19.7777 17.2439 19.5809C17.771 19.3777 18.2155 19.1014 18.6601 18.6569C19.1046 18.2123 19.3777 17.7646 19.5841 17.2407C19.7809 16.7327 19.9175 16.1516 19.9556 15.2975C19.9937 14.4433 20.0032 14.1734 20.0032 11.9984C20.0032 9.82338 19.9937 9.55348 19.9556 8.69935C19.9175 7.84838 19.7809 7.26732 19.5841 6.7561C19.3809 6.22901 19.1046 5.78448 18.6601 5.33995C18.2155 4.89542 17.7678 4.62235 17.2439 4.41596C16.7359 4.21909 16.1548 4.08256 15.3007 4.04445C14.4434 4.00953 14.1703 4 11.9984 4Z" fill="url(#paint0_radial_3413_21872)"/>
<path d="M11.9984 7.89285C9.73128 7.89285 7.88965 9.73131 7.88965 12.0016C7.88965 14.2719 9.72811 16.1103 11.9984 16.1103C14.2687 16.1103 16.1072 14.2719 16.1072 12.0016C16.1072 9.73131 14.2687 7.89285 11.9984 7.89285ZM11.9984 14.6656C10.5251 14.6656 9.3312 13.4717 9.3312 11.9984C9.3312 10.5251 10.5251 9.33123 11.9984 9.33123C13.4717 9.33123 14.6656 10.5251 14.6656 11.9984C14.6656 13.4717 13.4717 14.6656 11.9984 14.6656Z" fill="url(#paint1_radial_3413_21872)"/>
<path d="M16.269 8.6867C16.7986 8.6867 17.2279 8.25738 17.2279 7.72778C17.2279 7.19818 16.7986 6.76886 16.269 6.76886C15.7394 6.76886 15.3101 7.19818 15.3101 7.72778C15.3101 8.25738 15.7394 8.6867 16.269 8.6867Z" fill="url(#paint2_radial_3413_21872)"/>
<defs>
<radialGradient id="paint0_radial_3413_21872" cx="0" cy="0" r="1" gradientUnits="userSpaceOnUse" gradientTransform="translate(6.40048 6) rotate(44.9943) scale(15.8408)">
<stop stop-color="#4368C6"/>
<stop offset="0.28125" stop-color="#A734BA"/>
<stop offset="0.59375" stop-color="#E24A6F"/>
<stop offset="1" stop-color="#FBB554"/>
</radialGradient>
<radialGradient id="paint1_radial_3413_21872" cx="0" cy="0" r="1" gradientUnits="userSpaceOnUse" gradientTransform="translate(9.12227 8.92004) rotate(45) scale(8.13491)">
<stop stop-color="#4368C6"/>
<stop offset="0.28125" stop-color="#A734BA"/>
<stop offset="0.59375" stop-color="#E24A6F"/>
<stop offset="1" stop-color="#FBB554"/>
</radialGradient>
<radialGradient id="paint2_radial_3413_21872" cx="0" cy="0" r="1" gradientUnits="userSpaceOnUse" gradientTransform="translate(15.5977 7.00859) rotate(45) scale(1.89857)">
<stop stop-color="#4368C6"/>
<stop offset="0.28125" stop-color="#A734BA"/>
<stop offset="0.59375" stop-color="#E24A6F"/>
<stop offset="1" stop-color="#FBB554"/>
</radialGradient>
</defs>
</svg>
