<svg width="20" height="21" viewBox="0 0 20 21" fill="none" xmlns="http://www.w3.org/2000/svg">
<path fill-rule="evenodd" clip-rule="evenodd" d="M11.9391 2.13313C10.6228 1.84048 9.37516 2.84187 9.37516 4.1899V16.2616C9.37516 17.6087 10.6228 18.6102 11.9384 18.3175L15.6409 17.4943C16.6058 17.281 17.2918 16.4253 17.2918 15.4382V5.0124C17.2918 4.02559 16.6059 3.16988 15.6419 2.95635L11.9391 2.13313ZM15.3704 16.274L11.667 17.0973C11.1326 17.2162 10.6252 16.8094 10.6252 16.2616V4.1899C10.6252 3.64127 11.1325 3.23432 11.6679 3.35334L15.3717 4.17679C15.7626 4.26334 16.0418 4.61095 16.0418 5.0124V15.4382C16.0418 15.8395 15.7622 16.1873 15.3704 16.274ZM13.1252 9.3574C13.1252 9.01222 12.8453 8.7324 12.5002 8.7324C12.155 8.7324 11.8752 9.01222 11.8752 9.3574V11.0241C11.8752 11.3692 12.155 11.6491 12.5002 11.6491C12.8453 11.6491 13.1252 11.3692 13.1252 11.0241V9.3574ZM3.3335 12.9157C3.67867 12.9157 3.9585 13.1956 3.9585 13.5407V15.2424C3.9585 15.8181 4.42451 16.2841 5.00016 16.2841H7.50016C7.84534 16.2841 8.12516 16.5639 8.12516 16.9091C8.12516 17.2543 7.84534 17.5341 7.50016 17.5341H5.00016C3.73415 17.5341 2.7085 16.5084 2.7085 15.2424V13.5407C2.7085 13.1956 2.98832 12.9157 3.3335 12.9157ZM3.9585 5.20741C3.9585 4.63176 4.42451 4.16575 5.00016 4.16575H7.50016C7.84534 4.16575 8.12516 3.88592 8.12516 3.54075C8.12516 3.19557 7.84534 2.91575 7.50016 2.91575H5.00016C3.73415 2.91575 2.7085 3.9414 2.7085 5.20741V6.87408C2.7085 7.21926 2.98832 7.49908 3.3335 7.49908C3.67867 7.49908 3.9585 7.21926 3.9585 6.87408V5.20741ZM2.7085 10.2074C2.7085 9.86224 2.98832 9.58241 3.3335 9.58241H5.99128L5.39155 8.98269C5.14748 8.73861 5.14748 8.34288 5.39155 8.0988C5.63563 7.85473 6.03136 7.85473 6.27544 8.0988L7.9421 9.76547C8.00203 9.82539 8.04724 9.89446 8.07774 9.96817C8.1083 10.0419 8.12516 10.1227 8.12516 10.2074C8.12516 10.2922 8.1083 10.373 8.07774 10.4467C8.04724 10.5204 8.00203 10.5894 7.9421 10.6494L6.27544 12.316C6.03136 12.5601 5.63563 12.5601 5.39155 12.316C5.14748 12.0719 5.14748 11.6762 5.39155 11.4321L5.99128 10.8324H3.3335C2.98832 10.8324 2.7085 10.5526 2.7085 10.2074Z" fill="white"/>
</svg>
