<svg width="30" height="31" viewBox="0 0 30 31" fill="none" xmlns="http://www.w3.org/2000/svg">
<path fill-rule="evenodd" clip-rule="evenodd" d="M15 2.5246C15.5178 2.5246 15.9375 2.94433 15.9375 3.4621V5.9621C15.9375 6.47986 15.5178 6.8996 15 6.8996C14.4822 6.8996 14.0625 6.47986 14.0625 5.9621V3.4621C14.0625 2.94433 14.4822 2.5246 15 2.5246ZM15.9375 25.9621C15.9375 25.4443 15.5178 25.0246 15 25.0246C14.4822 25.0246 14.0625 25.4443 14.0625 25.9621V28.4621C14.0625 28.9799 14.4822 29.3996 15 29.3996C15.5178 29.3996 15.9375 28.9799 15.9375 28.4621V25.9621ZM11.2435 12.2056C9.16884 14.2802 9.16884 17.6439 11.2435 19.7186C13.3182 21.7933 16.6818 21.7933 18.7565 19.7186C20.8312 17.6439 20.8312 14.2802 18.7565 12.2056C16.6818 10.1309 13.3182 10.1309 11.2435 12.2056ZM20.0823 10.8798C17.2754 8.07287 12.7246 8.07287 9.91767 10.8798C7.11078 13.6867 7.11078 18.2375 9.91767 21.0444C12.7246 23.8513 17.2754 23.8513 20.0823 21.0444C22.8892 18.2375 22.8892 13.6867 20.0823 10.8798ZM24.5005 6.46168C24.8667 6.82779 24.8667 7.42138 24.5005 7.7875L23.613 8.675C23.2469 9.04112 22.6533 9.04112 22.2872 8.675C21.9211 8.30888 21.9211 7.71529 22.2872 7.34918L23.1747 6.46168C23.5408 6.09556 24.1344 6.09556 24.5005 6.46168ZM7.71283 24.575C8.07894 24.2089 8.07894 23.6153 7.71283 23.2492C7.34671 22.883 6.75312 22.883 6.387 23.2492L5.4995 24.1367C5.13339 24.5028 5.13339 25.0964 5.4995 25.4625C5.86562 25.8286 6.45921 25.8286 6.82533 25.4625L7.71283 24.575ZM24.0625 15.9621C24.0625 15.4443 24.4822 15.0246 25 15.0246H27.5C28.0178 15.0246 28.4375 15.4443 28.4375 15.9621C28.4375 16.4799 28.0178 16.8996 27.5 16.8996H25C24.4822 16.8996 24.0625 16.4799 24.0625 15.9621ZM2.5 15.0246C1.98223 15.0246 1.5625 15.4443 1.5625 15.9621C1.5625 16.4799 1.98223 16.8996 2.5 16.8996H5C5.51777 16.8996 5.9375 16.4799 5.9375 15.9621C5.9375 15.4443 5.51777 15.0246 5 15.0246H2.5ZM22.2872 23.2492C22.6533 22.883 23.2469 22.883 23.613 23.2492L24.5005 24.1367C24.8667 24.5028 24.8667 25.0964 24.5005 25.4625C24.1344 25.8286 23.5408 25.8286 23.1747 25.4625L22.2872 24.575C21.9211 24.2089 21.9211 23.6153 22.2872 23.2492ZM6.82533 6.46168C6.45921 6.09556 5.86562 6.09556 5.4995 6.46168C5.13339 6.82779 5.13339 7.42138 5.4995 7.7875L6.387 8.675C6.75312 9.04112 7.34671 9.04112 7.71283 8.675C8.07894 8.30888 8.07894 7.71529 7.71283 7.34918L6.82533 6.46168Z" fill="white" stroke="white" stroke-linecap="round" stroke-linejoin="round"/>
</svg>
